<svg xmlns="http://www.w3.org/2000/svg" viewBox="0 0 206 48" fill="#4d4e4d" role="img" aria-label="Twill DB">
  <g transform="translate(0.964051, 46.624745)"><path d="M 25.859375 -36.484375 L 18.875 -36.484375 L 18.875 0 L 7.109375 0 L 7.109375 -36.484375 L 0.125 -36.484375 L 0.125 -45.703125 L 25.859375 -45.703125 Z M 25.859375 -36.484375 "/></g>
  <g transform="translate(26.945526, 46.624745)"><path d="M 14.078125 -14.078125 L 14.203125 -14.078125 L 17.46875 -45.703125 L 29.828125 -45.703125 L 33.15625 -14.078125 L 33.28125 -14.078125 L 36.03125 -45.703125 L 47.421875 -45.703125 L 42.046875 0 L 27.140625 0 L 23.9375 -26.5 L 23.8125 -26.5 L 20.28125 0 L 5.3125 0 L 0 -45.703125 L 11.390625 -45.703125 Z M 14.078125 -14.078125 "/></g>
  <g transform="translate(74.364923, 46.624745)"><path d="M 12.984375 0 L 1.21875 0 L 1.21875 -45.703125 L 12.984375 -45.703125 Z M 12.984375 0 "/></g>
  <g transform="translate(88.571545, 46.624745)"><path d="M 13.1875 -8.828125 L 20.984375 -8.828125 L 20.984375 0 L 1.40625 0 L 1.40625 -45.703125 L 13.1875 -45.703125 Z M 13.1875 -8.828125 "/></g>
  <g transform="translate(109.881477, 46.624745)"><path d="M 13.1875 -8.828125 L 20.984375 -8.828125 L 20.984375 0 L 1.40625 0 L 1.40625 -45.703125 L 13.1875 -45.703125 Z M 13.1875 -8.828125 "/></g>
  <g transform="translate(146.54992, 46.624745)"><path d="M 29.4375 -34.296875 L 29.4375 -8.578125 C 29.4375 -5.765625 28.5 -3.628906 26.625 -2.171875 C 24.75 -0.722656 22.296875 0 19.265625 0 L 1.40625 0 L 1.40625 -45.703125 L 16.703125 -45.703125 C 19.515625 -45.703125 21.835938 -45.390625 23.671875 -44.765625 C 25.515625 -44.148438 26.9375 -43.007812 27.9375 -41.34375 C 28.9375 -39.675781 29.4375 -37.328125 29.4375 -34.296875 Z M 17.65625 -11.078125 L 17.65625 -34.625 C 17.65625 -35.476562 17.410156 -36.253906 16.921875 -36.953125 C 16.429688 -37.660156 15.804688 -38.015625 15.046875 -38.015625 L 13.1875 -38.015625 L 13.1875 -7.6875 L 15.046875 -7.6875 C 15.804688 -7.6875 16.429688 -8.023438 16.921875 -8.703125 C 17.410156 -9.390625 17.65625 -10.179688 17.65625 -11.078125 Z M 17.65625 -11.078125 "/></g>
  <g transform="translate(177.394914, 46.624745)"><path d="M 27.84375 -37.5 L 27.84375 -32 C 27.84375 -29.570312 27.171875 -27.863281 25.828125 -26.875 C 24.484375 -25.894531 22.59375 -25.382812 20.15625 -25.34375 L 20.03125 -25.21875 C 22.882812 -25.039062 25.023438 -24.160156 26.453125 -22.578125 C 27.890625 -21.003906 28.609375 -19.023438 28.609375 -16.640625 L 28.609375 -9.796875 C 28.609375 -6.421875 27.679688 -3.941406 25.828125 -2.359375 C 23.972656 -0.785156 21.25 0 17.65625 0 L 1.40625 0 L 1.40625 -45.703125 L 18.375 -45.703125 C 21.570312 -45.703125 23.945312 -45.039062 25.5 -43.71875 C 27.0625 -42.394531 27.84375 -40.320312 27.84375 -37.5 Z M 14.140625 -27.90625 C 15.035156 -27.90625 15.707031 -28.179688 16.15625 -28.734375 C 16.601562 -29.285156 16.828125 -29.90625 16.828125 -30.59375 L 16.828125 -35.71875 C 16.828125 -36.3125 16.613281 -36.90625 16.1875 -37.5 C 15.757812 -38.101562 15.035156 -38.40625 14.015625 -38.40625 L 12.796875 -38.40625 L 12.796875 -27.90625 Z M 16.828125 -10.4375 L 16.828125 -18.234375 C 16.828125 -19.128906 16.582031 -19.8125 16.09375 -20.28125 C 15.601562 -20.75 14.910156 -20.984375 14.015625 -20.984375 L 12.796875 -20.984375 L 12.796875 -7.6875 C 12.972656 -7.632812 13.207031 -7.609375 13.5 -7.609375 C 14.53125 -7.609375 15.34375 -7.820312 15.9375 -8.25 C 16.53125 -8.675781 16.828125 -9.40625 16.828125 -10.4375 Z M 16.828125 -10.4375 "/></g>
</svg>
